<?xml version="1.0" standalone="no"?>
 <!DOCTYPE svg PUBLIC "-//W3C//DTD SVG 1.1//EN" 
 "http://www.w3.org/Graphics/SVG/1.1/DTD/svg11.dtd"> 
<svg xmlns="http://www.w3.org/2000/svg" version="1.1" 
    width="29.7002cm" height="21.0007cm" viewBox="0 0 116930 82680 ">
<title>SVG Picture created as USBtiny ISP Programmer ATtiny44-F_SilkS.svg date 2020/01/06 00:18:12 </title>
  <desc>Picture generated by PCBNEW </desc>
<g style="fill:#000000; fill-opacity:1;stroke:#000000; stroke-opacity:1;
stroke-linecap:round; stroke-linejoin:round; "
 transform="translate(0 0) scale(1 1)">
</g>
<g style="fill:#000000; fill-opacity:0.0; 
stroke:#000000; stroke-width:-0.000393701; stroke-opacity:1; 
stroke-linecap:round; stroke-linejoin:round;">
</g>
<g style="fill:#000000; fill-opacity:0.0; 
stroke:#000000; stroke-width:39.3701; stroke-opacity:1; 
stroke-linecap:round; stroke-linejoin:round;">
</g>
<g style="fill:#000000; fill-opacity:0.0; 
stroke:#000000; stroke-width:59.0551; stroke-opacity:1; 
stroke-linecap:round; stroke-linejoin:round;">
<rect x="69685.9" y="65357.2" width="42519.7" height="12598.4" rx="0" />
</g>
<g style="fill:#000000; fill-opacity:0.0; 
stroke:#000000; stroke-width:39.3701; stroke-opacity:1; 
stroke-linecap:round; stroke-linejoin:round;">
</g>
<g style="fill:#000000; fill-opacity:0.0; 
stroke:#000000; stroke-width:59.0551; stroke-opacity:1; 
stroke-linecap:round; stroke-linejoin:round;">
<rect x="3937.01" y="3937.01" width="109056" height="74806" rx="0" />
</g>
<g style="fill:#000000; fill-opacity:0.0; 
stroke:#000000; stroke-width:39.3701; stroke-opacity:1; 
stroke-linecap:round; stroke-linejoin:round;">
</g>
<g style="fill:#000000; fill-opacity:0.0; 
stroke:#000000; stroke-width:59.0551; stroke-opacity:1; 
stroke-linecap:round; stroke-linejoin:round;">
<rect x="4724.41" y="4724.41" width="107481" height="73231.2" rx="0" />
</g>
<g style="fill:#000000; fill-opacity:0.0; 
stroke:#000000; stroke-width:39.3701; stroke-opacity:1; 
stroke-linecap:round; stroke-linejoin:round;">
</g>
<g style="fill:#000000; fill-opacity:0.0; 
stroke:#000000; stroke-width:59.0551; stroke-opacity:1; 
stroke-linecap:round; stroke-linejoin:round;">
<path d="M23622 4724
L23622 3937
" />
</g>
<g style="fill:#000000; fill-opacity:0.0; 
stroke:#000000; stroke-width:39.3701; stroke-opacity:1; 
stroke-linecap:round; stroke-linejoin:round;">
</g>
<g style="fill:#000000; fill-opacity:0.0; 
stroke:#000000; stroke-width:59.0551; stroke-opacity:1; 
stroke-linecap:round; stroke-linejoin:round;">
<path d="M43307 4724
L43307 3937
" />
</g>
<g style="fill:#000000; fill-opacity:0.0; 
stroke:#000000; stroke-width:39.3701; stroke-opacity:1; 
stroke-linecap:round; stroke-linejoin:round;">
</g>
<g style="fill:#000000; fill-opacity:0.0; 
stroke:#000000; stroke-width:59.0551; stroke-opacity:1; 
stroke-linecap:round; stroke-linejoin:round;">
<path d="M62992 4724
L62992 3937
" />
</g>
<g style="fill:#000000; fill-opacity:0.0; 
stroke:#000000; stroke-width:39.3701; stroke-opacity:1; 
stroke-linecap:round; stroke-linejoin:round;">
</g>
<g style="fill:#000000; fill-opacity:0.0; 
stroke:#000000; stroke-width:59.0551; stroke-opacity:1; 
stroke-linecap:round; stroke-linejoin:round;">
<path d="M82677 4724
L82677 3937
" />
</g>
<g style="fill:#000000; fill-opacity:0.0; 
stroke:#000000; stroke-width:39.3701; stroke-opacity:1; 
stroke-linecap:round; stroke-linejoin:round;">
</g>
<g style="fill:#000000; fill-opacity:0.0; 
stroke:#000000; stroke-width:59.0551; stroke-opacity:1; 
stroke-linecap:round; stroke-linejoin:round;">
<path d="M102362 4724
L102362 3937
" />
</g>
<g style="fill:#000000; fill-opacity:0.0; 
stroke:#000000; stroke-width:39.3701; stroke-opacity:1; 
stroke-linecap:round; stroke-linejoin:round;">
</g>
<g style="fill:#000000; fill-opacity:0.0; 
stroke:#000000; stroke-width:59.0551; stroke-opacity:1; 
stroke-linecap:round; stroke-linejoin:round;">
<path d="M14199 4562
L13906 4562
" />
<path d="M14052 4562
L14052 4050
L14004 4123
L13955 4172
L13906 4196
" />
</g>
<g style="fill:#000000; fill-opacity:0.0; 
stroke:#000000; stroke-width:39.3701; stroke-opacity:1; 
stroke-linecap:round; stroke-linejoin:round;">
</g>
<g style="fill:#000000; fill-opacity:0.0; 
stroke:#000000; stroke-width:59.0551; stroke-opacity:1; 
stroke-linecap:round; stroke-linejoin:round;">
<path d="M33591 4099
L33615 4074
L33664 4050
L33786 4050
L33835 4074
L33859 4099
L33884 4147
L33884 4196
L33859 4269
L33567 4562
L33884 4562
" />
</g>
<g style="fill:#000000; fill-opacity:0.0; 
stroke:#000000; stroke-width:39.3701; stroke-opacity:1; 
stroke-linecap:round; stroke-linejoin:round;">
</g>
<g style="fill:#000000; fill-opacity:0.0; 
stroke:#000000; stroke-width:59.0551; stroke-opacity:1; 
stroke-linecap:round; stroke-linejoin:round;">
<path d="M53252 4050
L53569 4050
L53398 4245
L53471 4245
L53520 4269
L53544 4294
L53569 4342
L53569 4464
L53544 4513
L53520 4537
L53471 4562
L53325 4562
L53276 4537
L53252 4513
" />
</g>
<g style="fill:#000000; fill-opacity:0.0; 
stroke:#000000; stroke-width:39.3701; stroke-opacity:1; 
stroke-linecap:round; stroke-linejoin:round;">
</g>
<g style="fill:#000000; fill-opacity:0.0; 
stroke:#000000; stroke-width:59.0551; stroke-opacity:1; 
stroke-linecap:round; stroke-linejoin:round;">
<path d="M73205 4221
L73205 4562
" />
<path d="M73083 4026
L72961 4391
L73278 4391
" />
</g>
<g style="fill:#000000; fill-opacity:0.0; 
stroke:#000000; stroke-width:39.3701; stroke-opacity:1; 
stroke-linecap:round; stroke-linejoin:round;">
</g>
<g style="fill:#000000; fill-opacity:0.0; 
stroke:#000000; stroke-width:59.0551; stroke-opacity:1; 
stroke-linecap:round; stroke-linejoin:round;">
<path d="M92914 4050
L92671 4050
L92646 4294
L92671 4269
L92719 4245
L92841 4245
L92890 4269
L92914 4294
L92939 4342
L92939 4464
L92914 4513
L92890 4537
L92841 4562
L92719 4562
L92671 4537
L92646 4513
" />
</g>
<g style="fill:#000000; fill-opacity:0.0; 
stroke:#000000; stroke-width:39.3701; stroke-opacity:1; 
stroke-linecap:round; stroke-linejoin:round;">
</g>
<g style="fill:#000000; fill-opacity:0.0; 
stroke:#000000; stroke-width:59.0551; stroke-opacity:1; 
stroke-linecap:round; stroke-linejoin:round;">
<path d="M112575 4050
L112477 4050
L112429 4074
L112404 4099
L112356 4172
L112331 4269
L112331 4464
L112356 4513
L112380 4537
L112429 4562
L112526 4562
L112575 4537
L112599 4513
L112624 4464
L112624 4342
L112599 4294
L112575 4269
L112526 4245
L112429 4245
L112380 4269
L112356 4294
L112331 4342
" />
</g>
<g style="fill:#000000; fill-opacity:0.0; 
stroke:#000000; stroke-width:39.3701; stroke-opacity:1; 
stroke-linecap:round; stroke-linejoin:round;">
</g>
<g style="fill:#000000; fill-opacity:0.0; 
stroke:#000000; stroke-width:59.0551; stroke-opacity:1; 
stroke-linecap:round; stroke-linejoin:round;">
<path d="M23622 77955
L23622 78742
" />
</g>
<g style="fill:#000000; fill-opacity:0.0; 
stroke:#000000; stroke-width:39.3701; stroke-opacity:1; 
stroke-linecap:round; stroke-linejoin:round;">
</g>
<g style="fill:#000000; fill-opacity:0.0; 
stroke:#000000; stroke-width:59.0551; stroke-opacity:1; 
stroke-linecap:round; stroke-linejoin:round;">
<path d="M43307 77955
L43307 78742
" />
</g>
<g style="fill:#000000; fill-opacity:0.0; 
stroke:#000000; stroke-width:39.3701; stroke-opacity:1; 
stroke-linecap:round; stroke-linejoin:round;">
</g>
<g style="fill:#000000; fill-opacity:0.0; 
stroke:#000000; stroke-width:59.0551; stroke-opacity:1; 
stroke-linecap:round; stroke-linejoin:round;">
<path d="M62992 77955
L62992 78742
" />
</g>
<g style="fill:#000000; fill-opacity:0.0; 
stroke:#000000; stroke-width:39.3701; stroke-opacity:1; 
stroke-linecap:round; stroke-linejoin:round;">
</g>
<g style="fill:#000000; fill-opacity:0.0; 
stroke:#000000; stroke-width:59.0551; stroke-opacity:1; 
stroke-linecap:round; stroke-linejoin:round;">
<path d="M82677 77955
L82677 78742
" />
</g>
<g style="fill:#000000; fill-opacity:0.0; 
stroke:#000000; stroke-width:39.3701; stroke-opacity:1; 
stroke-linecap:round; stroke-linejoin:round;">
</g>
<g style="fill:#000000; fill-opacity:0.0; 
stroke:#000000; stroke-width:59.0551; stroke-opacity:1; 
stroke-linecap:round; stroke-linejoin:round;">
<path d="M102362 77955
L102362 78742
" />
</g>
<g style="fill:#000000; fill-opacity:0.0; 
stroke:#000000; stroke-width:39.3701; stroke-opacity:1; 
stroke-linecap:round; stroke-linejoin:round;">
</g>
<g style="fill:#000000; fill-opacity:0.0; 
stroke:#000000; stroke-width:59.0551; stroke-opacity:1; 
stroke-linecap:round; stroke-linejoin:round;">
<path d="M14199 78580
L13906 78580
" />
<path d="M14052 78580
L14052 78069
L14004 78142
L13955 78190
L13906 78215
" />
</g>
<g style="fill:#000000; fill-opacity:0.0; 
stroke:#000000; stroke-width:39.3701; stroke-opacity:1; 
stroke-linecap:round; stroke-linejoin:round;">
</g>
<g style="fill:#000000; fill-opacity:0.0; 
stroke:#000000; stroke-width:59.0551; stroke-opacity:1; 
stroke-linecap:round; stroke-linejoin:round;">
<path d="M33591 78117
L33615 78093
L33664 78069
L33786 78069
L33835 78093
L33859 78117
L33884 78166
L33884 78215
L33859 78288
L33567 78580
L33884 78580
" />
</g>
<g style="fill:#000000; fill-opacity:0.0; 
stroke:#000000; stroke-width:39.3701; stroke-opacity:1; 
stroke-linecap:round; stroke-linejoin:round;">
</g>
<g style="fill:#000000; fill-opacity:0.0; 
stroke:#000000; stroke-width:59.0551; stroke-opacity:1; 
stroke-linecap:round; stroke-linejoin:round;">
<path d="M53252 78069
L53569 78069
L53398 78263
L53471 78263
L53520 78288
L53544 78312
L53569 78361
L53569 78483
L53544 78532
L53520 78556
L53471 78580
L53325 78580
L53276 78556
L53252 78532
" />
</g>
<g style="fill:#000000; fill-opacity:0.0; 
stroke:#000000; stroke-width:39.3701; stroke-opacity:1; 
stroke-linecap:round; stroke-linejoin:round;">
</g>
<g style="fill:#000000; fill-opacity:0.0; 
stroke:#000000; stroke-width:59.0551; stroke-opacity:1; 
stroke-linecap:round; stroke-linejoin:round;">
<path d="M73205 78239
L73205 78580
" />
<path d="M73083 78044
L72961 78410
L73278 78410
" />
</g>
<g style="fill:#000000; fill-opacity:0.0; 
stroke:#000000; stroke-width:39.3701; stroke-opacity:1; 
stroke-linecap:round; stroke-linejoin:round;">
</g>
<g style="fill:#000000; fill-opacity:0.0; 
stroke:#000000; stroke-width:59.0551; stroke-opacity:1; 
stroke-linecap:round; stroke-linejoin:round;">
<path d="M92914 78069
L92671 78069
L92646 78312
L92671 78288
L92719 78263
L92841 78263
L92890 78288
L92914 78312
L92939 78361
L92939 78483
L92914 78532
L92890 78556
L92841 78580
L92719 78580
L92671 78556
L92646 78532
" />
</g>
<g style="fill:#000000; fill-opacity:0.0; 
stroke:#000000; stroke-width:39.3701; stroke-opacity:1; 
stroke-linecap:round; stroke-linejoin:round;">
</g>
<g style="fill:#000000; fill-opacity:0.0; 
stroke:#000000; stroke-width:59.0551; stroke-opacity:1; 
stroke-linecap:round; stroke-linejoin:round;">
<path d="M112575 78069
L112477 78069
L112429 78093
L112404 78117
L112356 78190
L112331 78288
L112331 78483
L112356 78532
L112380 78556
L112429 78580
L112526 78580
L112575 78556
L112599 78532
L112624 78483
L112624 78361
L112599 78312
L112575 78288
L112526 78263
L112429 78263
L112380 78288
L112356 78312
L112331 78361
" />
</g>
<g style="fill:#000000; fill-opacity:0.0; 
stroke:#000000; stroke-width:39.3701; stroke-opacity:1; 
stroke-linecap:round; stroke-linejoin:round;">
</g>
<g style="fill:#000000; fill-opacity:0.0; 
stroke:#000000; stroke-width:59.0551; stroke-opacity:1; 
stroke-linecap:round; stroke-linejoin:round;">
<path d="M3937 23622
L4724 23622
" />
</g>
<g style="fill:#000000; fill-opacity:0.0; 
stroke:#000000; stroke-width:39.3701; stroke-opacity:1; 
stroke-linecap:round; stroke-linejoin:round;">
</g>
<g style="fill:#000000; fill-opacity:0.0; 
stroke:#000000; stroke-width:59.0551; stroke-opacity:1; 
stroke-linecap:round; stroke-linejoin:round;">
<path d="M3937 43307
L4724 43307
" />
</g>
<g style="fill:#000000; fill-opacity:0.0; 
stroke:#000000; stroke-width:39.3701; stroke-opacity:1; 
stroke-linecap:round; stroke-linejoin:round;">
</g>
<g style="fill:#000000; fill-opacity:0.0; 
stroke:#000000; stroke-width:59.0551; stroke-opacity:1; 
stroke-linecap:round; stroke-linejoin:round;">
<path d="M3937 62992
L4724 62992
" />
</g>
<g style="fill:#000000; fill-opacity:0.0; 
stroke:#000000; stroke-width:39.3701; stroke-opacity:1; 
stroke-linecap:round; stroke-linejoin:round;">
</g>
<g style="fill:#000000; fill-opacity:0.0; 
stroke:#000000; stroke-width:59.0551; stroke-opacity:1; 
stroke-linecap:round; stroke-linejoin:round;">
<path d="M4208 13864
L4452 13864
" />
<path d="M4160 14011
L4330 13499
L4501 14011
" />
</g>
<g style="fill:#000000; fill-opacity:0.0; 
stroke:#000000; stroke-width:39.3701; stroke-opacity:1; 
stroke-linecap:round; stroke-linejoin:round;">
</g>
<g style="fill:#000000; fill-opacity:0.0; 
stroke:#000000; stroke-width:59.0551; stroke-opacity:1; 
stroke-linecap:round; stroke-linejoin:round;">
<path d="M4367 33428
L4440 33452
L4464 33476
L4489 33525
L4489 33598
L4464 33647
L4440 33671
L4391 33696
L4196 33696
L4196 33184
L4367 33184
L4416 33208
L4440 33233
L4464 33281
L4464 33330
L4440 33379
L4416 33403
L4367 33428
L4196 33428
" />
</g>
<g style="fill:#000000; fill-opacity:0.0; 
stroke:#000000; stroke-width:39.3701; stroke-opacity:1; 
stroke-linecap:round; stroke-linejoin:round;">
</g>
<g style="fill:#000000; fill-opacity:0.0; 
stroke:#000000; stroke-width:59.0551; stroke-opacity:1; 
stroke-linecap:round; stroke-linejoin:round;">
<path d="M4489 53332
L4464 53356
L4391 53381
L4342 53381
L4269 53356
L4221 53308
L4196 53259
L4172 53161
L4172 53088
L4196 52991
L4221 52942
L4269 52893
L4342 52869
L4391 52869
L4464 52893
L4489 52918
" />
</g>
<g style="fill:#000000; fill-opacity:0.0; 
stroke:#000000; stroke-width:39.3701; stroke-opacity:1; 
stroke-linecap:round; stroke-linejoin:round;">
</g>
<g style="fill:#000000; fill-opacity:0.0; 
stroke:#000000; stroke-width:59.0551; stroke-opacity:1; 
stroke-linecap:round; stroke-linejoin:round;">
<path d="M4196 73066
L4196 72554
L4318 72554
L4391 72578
L4440 72627
L4464 72676
L4489 72773
L4489 72846
L4464 72944
L4440 72993
L4391 73041
L4318 73066
L4196 73066
" />
</g>
<g style="fill:#000000; fill-opacity:0.0; 
stroke:#000000; stroke-width:39.3701; stroke-opacity:1; 
stroke-linecap:round; stroke-linejoin:round;">
</g>
<g style="fill:#000000; fill-opacity:0.0; 
stroke:#000000; stroke-width:59.0551; stroke-opacity:1; 
stroke-linecap:round; stroke-linejoin:round;">
<path d="M112992 23622
L112205 23622
" />
</g>
<g style="fill:#000000; fill-opacity:0.0; 
stroke:#000000; stroke-width:39.3701; stroke-opacity:1; 
stroke-linecap:round; stroke-linejoin:round;">
</g>
<g style="fill:#000000; fill-opacity:0.0; 
stroke:#000000; stroke-width:59.0551; stroke-opacity:1; 
stroke-linecap:round; stroke-linejoin:round;">
<path d="M112992 43307
L112205 43307
" />
</g>
<g style="fill:#000000; fill-opacity:0.0; 
stroke:#000000; stroke-width:39.3701; stroke-opacity:1; 
stroke-linecap:round; stroke-linejoin:round;">
</g>
<g style="fill:#000000; fill-opacity:0.0; 
stroke:#000000; stroke-width:59.0551; stroke-opacity:1; 
stroke-linecap:round; stroke-linejoin:round;">
<path d="M112992 62992
L112205 62992
" />
</g>
<g style="fill:#000000; fill-opacity:0.0; 
stroke:#000000; stroke-width:39.3701; stroke-opacity:1; 
stroke-linecap:round; stroke-linejoin:round;">
</g>
<g style="fill:#000000; fill-opacity:0.0; 
stroke:#000000; stroke-width:59.0551; stroke-opacity:1; 
stroke-linecap:round; stroke-linejoin:round;">
<path d="M112477 13864
L112721 13864
" />
<path d="M112428 14011
L112599 13499
L112769 14011
" />
</g>
<g style="fill:#000000; fill-opacity:0.0; 
stroke:#000000; stroke-width:39.3701; stroke-opacity:1; 
stroke-linecap:round; stroke-linejoin:round;">
</g>
<g style="fill:#000000; fill-opacity:0.0; 
stroke:#000000; stroke-width:59.0551; stroke-opacity:1; 
stroke-linecap:round; stroke-linejoin:round;">
<path d="M112635 33428
L112708 33452
L112733 33476
L112757 33525
L112757 33598
L112733 33647
L112708 33671
L112660 33696
L112465 33696
L112465 33184
L112635 33184
L112684 33208
L112708 33233
L112733 33281
L112733 33330
L112708 33379
L112684 33403
L112635 33428
L112465 33428
" />
</g>
<g style="fill:#000000; fill-opacity:0.0; 
stroke:#000000; stroke-width:39.3701; stroke-opacity:1; 
stroke-linecap:round; stroke-linejoin:round;">
</g>
<g style="fill:#000000; fill-opacity:0.0; 
stroke:#000000; stroke-width:59.0551; stroke-opacity:1; 
stroke-linecap:round; stroke-linejoin:round;">
<path d="M112757 53332
L112733 53356
L112660 53381
L112611 53381
L112538 53356
L112489 53308
L112465 53259
L112440 53161
L112440 53088
L112465 52991
L112489 52942
L112538 52893
L112611 52869
L112660 52869
L112733 52893
L112757 52918
" />
</g>
<g style="fill:#000000; fill-opacity:0.0; 
stroke:#000000; stroke-width:39.3701; stroke-opacity:1; 
stroke-linecap:round; stroke-linejoin:round;">
</g>
<g style="fill:#000000; fill-opacity:0.0; 
stroke:#000000; stroke-width:59.0551; stroke-opacity:1; 
stroke-linecap:round; stroke-linejoin:round;">
<path d="M112465 73066
L112465 72554
L112587 72554
L112660 72578
L112708 72627
L112733 72676
L112757 72773
L112757 72846
L112733 72944
L112708 72993
L112660 73041
L112587 73066
L112465 73066
" />
</g>
<g style="fill:#000000; fill-opacity:0.0; 
stroke:#000000; stroke-width:39.3701; stroke-opacity:1; 
stroke-linecap:round; stroke-linejoin:round;">
</g>
<g style="fill:#000000; fill-opacity:0.0; 
stroke:#000000; stroke-width:59.0551; stroke-opacity:1; 
stroke-linecap:round; stroke-linejoin:round;">
<path d="M78911 76293
L78911 75703
L79051 75703
L79136 75731
L79192 75787
L79220 75843
L79248 75956
L79248 76040
L79220 76153
L79192 76209
L79136 76265
L79051 76293
L78911 76293
" />
<path d="M79754 76293
L79754 75984
L79726 75928
L79670 75899
L79557 75899
L79501 75928
" />
<path d="M79754 76265
L79698 76293
L79557 76293
L79501 76265
L79473 76209
L79473 76153
L79501 76096
L79557 76068
L79698 76068
L79754 76040
" />
<path d="M79951 75899
L80176 75899
" />
<path d="M80036 75703
L80036 76209
L80064 76265
L80120 76293
L80176 76293
" />
<path d="M80598 76265
L80542 76293
L80429 76293
L80373 76265
L80345 76209
L80345 75984
L80373 75928
L80429 75899
L80542 75899
L80598 75928
L80626 75984
L80626 76040
L80345 76096
" />
<path d="M80879 76237
L80907 76265
L80879 76293
L80851 76265
L80879 76237
L80879 76293
" />
<path d="M80879 75928
L80907 75956
L80879 75984
L80851 75956
L80879 75928
L80879 75984
" />
<path d="M81582 75759
L81610 75731
L81667 75703
L81807 75703
L81863 75731
L81892 75759
L81920 75815
L81920 75871
L81892 75956
L81554 76293
L81920 76293
" />
<path d="M82285 75703
L82341 75703
L82398 75731
L82426 75759
L82454 75815
L82482 75928
L82482 76068
L82454 76181
L82426 76237
L82398 76265
L82341 76293
L82285 76293
L82229 76265
L82201 76237
L82173 76181
L82145 76068
L82145 75928
L82173 75815
L82201 75759
L82229 75731
L82285 75703
" />
<path d="M82707 75759
L82735 75731
L82791 75703
L82932 75703
L82988 75731
L83016 75759
L83045 75815
L83045 75871
L83016 75956
L82679 76293
L83045 76293
" />
<path d="M83410 75703
L83466 75703
L83523 75731
L83551 75759
L83579 75815
L83607 75928
L83607 76068
L83579 76181
L83551 76237
L83523 76265
L83466 76293
L83410 76293
L83354 76265
L83326 76237
L83298 76181
L83269 76068
L83269 75928
L83298 75815
L83326 75759
L83354 75731
L83410 75703
" />
<path d="M83860 76068
L84310 76068
" />
<path d="M84704 75703
L84760 75703
L84816 75731
L84844 75759
L84872 75815
L84901 75928
L84901 76068
L84872 76181
L84844 76237
L84816 76265
L84760 76293
L84704 76293
L84647 76265
L84619 76237
L84591 76181
L84563 76068
L84563 75928
L84591 75815
L84619 75759
L84647 75731
L84704 75703
" />
<path d="M85463 76293
L85126 76293
" />
<path d="M85294 76293
L85294 75703
L85238 75787
L85182 75843
L85126 75871
" />
<path d="M85716 76068
L86166 76068
" />
<path d="M86560 75703
L86616 75703
L86672 75731
L86700 75759
L86728 75815
L86757 75928
L86757 76068
L86728 76181
L86700 76237
L86672 76265
L86616 76293
L86560 76293
L86503 76265
L86475 76237
L86447 76181
L86419 76068
L86419 75928
L86447 75815
L86475 75759
L86503 75731
L86560 75703
" />
<path d="M86982 75759
L87010 75731
L87066 75703
L87206 75703
L87263 75731
L87291 75759
L87319 75815
L87319 75871
L87291 75956
L86953 76293
L87319 76293
" />
</g>
<g style="fill:#000000; fill-opacity:0.0; 
stroke:#000000; stroke-width:39.3701; stroke-opacity:1; 
stroke-linecap:round; stroke-linejoin:round;">
</g>
<g style="fill:#000000; fill-opacity:0.0; 
stroke:#000000; stroke-width:59.0551; stroke-opacity:1; 
stroke-linecap:round; stroke-linejoin:round;">
<path d="M69685 76577
L112205 76577
" />
</g>
<g style="fill:#000000; fill-opacity:0.0; 
stroke:#000000; stroke-width:39.3701; stroke-opacity:1; 
stroke-linecap:round; stroke-linejoin:round;">
</g>
<g style="fill:#000000; fill-opacity:0.0; 
stroke:#000000; stroke-width:59.0551; stroke-opacity:1; 
stroke-linecap:round; stroke-linejoin:round;">
<path d="M70249 77395
L70249 76805
" />
<path d="M70587 77395
L70334 77058
" />
<path d="M70587 76805
L70249 77142
" />
<path d="M70840 77395
L70840 77002
" />
<path d="M70840 76805
L70812 76833
L70840 76861
L70868 76833
L70840 76805
L70840 76861
" />
<path d="M71458 77339
L71430 77367
L71346 77395
L71290 77395
L71205 77367
L71149 77311
L71121 77255
L71093 77142
L71093 77058
L71121 76946
L71149 76889
L71205 76833
L71290 76805
L71346 76805
L71430 76833
L71458 76861
" />
<path d="M71965 77395
L71965 77086
L71937 77030
L71880 77002
L71768 77002
L71712 77030
" />
<path d="M71965 77367
L71908 77395
L71768 77395
L71712 77367
L71683 77311
L71683 77255
L71712 77199
L71768 77171
L71908 77171
L71965 77142
" />
<path d="M72499 77395
L72499 76805
" />
<path d="M72499 77367
L72443 77395
L72330 77395
L72274 77367
L72246 77339
L72218 77283
L72218 77114
L72246 77058
L72274 77030
L72330 77002
L72443 77002
L72499 77030
" />
<path d="M73230 77086
L73427 77086
" />
<path d="M73511 77395
L73230 77395
L73230 76805
L73511 76805
" />
<path d="M73764 77339
L73793 77367
L73764 77395
L73736 77367
L73764 77339
L73764 77395
" />
<path d="M74046 77395
L74046 76805
L74186 76805
L74271 76833
L74327 76889
L74355 76946
L74383 77058
L74383 77142
L74355 77255
L74327 77311
L74271 77367
L74186 77395
L74046 77395
" />
<path d="M74636 77339
L74664 77367
L74636 77395
L74608 77367
L74636 77339
L74636 77395
" />
<path d="M74889 77227
L75171 77227
" />
<path d="M74833 77395
L75030 76805
L75227 77395
" />
<path d="M75424 77339
L75452 77367
L75424 77395
L75395 77367
L75424 77339
L75424 77395
" />
<path d="M76605 77395
L76605 76805
" />
<path d="M76661 77171
L76830 77395
" />
<path d="M76830 77002
L76605 77227
" />
<path d="M77083 77395
L77083 77002
" />
<path d="M77083 76805
L77055 76833
L77083 76861
L77111 76833
L77083 76805
L77083 76861
" />
<path d="M77617 77367
L77561 77395
L77448 77395
L77392 77367
L77364 77339
L77336 77283
L77336 77114
L77364 77058
L77392 77030
L77448 77002
L77561 77002
L77617 77030
" />
<path d="M78123 77395
L78123 77086
L78095 77030
L78039 77002
L77926 77002
L77870 77030
" />
<path d="M78123 77367
L78067 77395
L77926 77395
L77870 77367
L77842 77311
L77842 77255
L77870 77199
L77926 77171
L78067 77171
L78123 77142
" />
<path d="M78658 77395
L78658 76805
" />
<path d="M78658 77367
L78601 77395
L78489 77395
L78433 77367
L78404 77339
L78376 77283
L78376 77114
L78404 77058
L78433 77030
L78489 77002
L78601 77002
L78658 77030
" />
<path d="M79557 77620
L79529 77592
L79473 77508
L79445 77452
L79417 77367
L79389 77227
L79389 77114
L79417 76974
L79445 76889
L79473 76833
L79529 76749
L79557 76721
" />
<path d="M80064 76805
L79782 76805
L79754 77086
L79782 77058
L79839 77030
L79979 77030
L80036 77058
L80064 77086
L80092 77142
L80092 77283
L80064 77339
L80036 77367
L79979 77395
L79839 77395
L79782 77367
L79754 77339
" />
<path d="M80345 77339
L80373 77367
L80345 77395
L80317 77367
L80345 77339
L80345 77395
" />
<path d="M80935 77395
L80598 77395
" />
<path d="M80767 77395
L80767 76805
L80710 76889
L80654 76946
L80598 76974
" />
<path d="M81188 77339
L81217 77367
L81188 77395
L81160 77367
L81188 77339
L81188 77395
" />
<path d="M81442 76861
L81470 76833
L81526 76805
L81667 76805
L81723 76833
L81751 76861
L81779 76917
L81779 76974
L81751 77058
L81413 77395
L81779 77395
" />
<path d="M81976 77620
L82004 77592
L82060 77508
L82088 77452
L82117 77367
L82145 77227
L82145 77114
L82117 76974
L82088 76889
L82060 76833
L82004 76749
L81976 76721
" />
<path d="M82426 77171
L82876 77171
" />
<path d="M83129 76861
L83157 76833
L83213 76805
L83354 76805
L83410 76833
L83438 76861
L83466 76917
L83466 76974
L83438 77058
L83101 77395
L83466 77395
" />
</g>
<g style="fill:#000000; fill-opacity:0.0; 
stroke:#000000; stroke-width:39.3701; stroke-opacity:1; 
stroke-linecap:round; stroke-linejoin:round;">
</g>
<g style="fill:#000000; fill-opacity:0.0; 
stroke:#000000; stroke-width:59.0551; stroke-opacity:1; 
stroke-linecap:round; stroke-linejoin:round;">
<path d="M69685 75396
L112205 75396
" />
</g>
<g style="fill:#000000; fill-opacity:0.0; 
stroke:#000000; stroke-width:39.3701; stroke-opacity:1; 
stroke-linecap:round; stroke-linejoin:round;">
</g>
<g style="fill:#000000; fill-opacity:0.0; 
stroke:#000000; stroke-width:118.11; stroke-opacity:1; 
stroke-linecap:round; stroke-linejoin:round;">
<path d="M104099 76293
L103902 76012
" />
<path d="M103761 76293
L103761 75703
L103986 75703
L104042 75731
L104070 75759
L104099 75815
L104099 75899
L104070 75956
L104042 75984
L103986 76012
L103761 76012
" />
<path d="M104577 76265
L104520 76293
L104408 76293
L104352 76265
L104323 76209
L104323 75984
L104352 75928
L104408 75899
L104520 75899
L104577 75928
L104605 75984
L104605 76040
L104323 76096
" />
<path d="M104802 75899
L104942 76293
L105083 75899
" />
<path d="M105308 76237
L105336 76265
L105308 76293
L105280 76265
L105308 76237
L105308 76293
" />
<path d="M105308 75928
L105336 75956
L105308 75984
L105280 75956
L105308 75928
L105308 75984
" />
<path d="M106039 76293
L106039 75899
" />
<path d="M106039 76012
L106067 75956
L106095 75928
L106151 75899
L106208 75899
" />
<path d="M106348 75899
L106489 76293
L106629 75899
" />
<path d="M106967 75703
L107023 75703
L107079 75731
L107108 75759
L107136 75815
L107164 75928
L107164 76068
L107136 76181
L107108 76237
L107079 76265
L107023 76293
L106967 76293
L106911 76265
L106883 76237
L106854 76181
L106826 76068
L106826 75928
L106854 75815
L106883 75759
L106911 75731
L106967 75703
" />
<path d="M107726 76293
L107389 76293
" />
<path d="M107557 76293
L107557 75703
L107501 75787
L107445 75843
L107389 75871
" />
</g>
<g style="fill:#000000; fill-opacity:0.0; 
stroke:#000000; stroke-width:39.3701; stroke-opacity:1; 
stroke-linecap:round; stroke-linejoin:round;">
</g>
<g style="fill:#000000; fill-opacity:0.0; 
stroke:#000000; stroke-width:59.0551; stroke-opacity:1; 
stroke-linecap:round; stroke-linejoin:round;">
<path d="M70221 76265
L70305 76293
L70446 76293
L70502 76265
L70530 76237
L70559 76181
L70559 76124
L70530 76068
L70502 76040
L70446 76012
L70334 75984
L70277 75956
L70249 75928
L70221 75871
L70221 75815
L70249 75759
L70277 75731
L70334 75703
L70474 75703
L70559 75731
" />
<path d="M70812 76293
L70812 75899
" />
<path d="M70812 75703
L70784 75731
L70812 75759
L70840 75731
L70812 75703
L70812 75759
" />
<path d="M71037 75899
L71346 75899
L71037 76293
L71346 76293
" />
<path d="M71796 76265
L71740 76293
L71627 76293
L71571 76265
L71543 76209
L71543 75984
L71571 75928
L71627 75899
L71740 75899
L71796 75928
L71824 75984
L71824 76040
L71543 76096
" />
<path d="M72077 76237
L72105 76265
L72077 76293
L72049 76265
L72077 76237
L72077 76293
" />
<path d="M72077 75928
L72105 75956
L72077 75984
L72049 75956
L72077 75928
L72077 75984
" />
<path d="M72780 76124
L73061 76124
" />
<path d="M72724 76293
L72921 75703
L73118 76293
" />
<path d="M73568 75899
L73568 76293
" />
<path d="M73427 75674
L73286 76096
L73652 76096
" />
</g>
<g style="fill:#000000; fill-opacity:0.0; 
stroke:#000000; stroke-width:39.3701; stroke-opacity:1; 
stroke-linecap:round; stroke-linejoin:round;">
</g>
<g style="fill:#000000; fill-opacity:0.0; 
stroke:#000000; stroke-width:59.0551; stroke-opacity:1; 
stroke-linecap:round; stroke-linejoin:round;">
<path d="M103714 77395
L103714 76805
" />
<path d="M104248 77395
L104248 76805
" />
<path d="M104248 77367
L104192 77395
L104079 77395
L104023 77367
L103995 77339
L103967 77283
L103967 77114
L103995 77058
L104023 77030
L104079 77002
L104192 77002
L104248 77030
" />
<path d="M104529 77339
L104557 77367
L104529 77395
L104501 77367
L104529 77339
L104529 77395
" />
<path d="M104529 77030
L104557 77058
L104529 77086
L104501 77058
L104529 77030
L104529 77086
" />
<path d="M105570 77395
L105232 77395
" />
<path d="M105401 77395
L105401 76805
L105345 76889
L105289 76946
L105232 76974
" />
<path d="M106245 76777
L105739 77536
" />
<path d="M106751 77395
L106413 77395
" />
<path d="M106582 77395
L106582 76805
L106526 76889
L106470 76946
L106413 76974
" />
</g>
<g style="fill:#000000; fill-opacity:0.0; 
stroke:#000000; stroke-width:39.3701; stroke-opacity:1; 
stroke-linecap:round; stroke-linejoin:round;">
</g>
<g style="fill:#000000; fill-opacity:0.0; 
stroke:#000000; stroke-width:59.0551; stroke-opacity:1; 
stroke-linecap:round; stroke-linejoin:round;">
<path d="M69685 73821
L112205 73821
" />
</g>
<g style="fill:#000000; fill-opacity:0.0; 
stroke:#000000; stroke-width:39.3701; stroke-opacity:1; 
stroke-linecap:round; stroke-linejoin:round;">
</g>
<g style="fill:#000000; fill-opacity:0.0; 
stroke:#000000; stroke-width:157.48; stroke-opacity:1; 
stroke-linecap:round; stroke-linejoin:round;">
<path d="M70360 74099
L70810 74099
" />
<path d="M70486 74886
L70585 74099
" />
<path d="M70974 74886
L71039 74361
" />
<path d="M71072 74099
L71030 74136
L71063 74174
L71105 74136
L71072 74099
L71063 74174
" />
<path d="M71302 74361
L71602 74361
" />
<path d="M71447 74099
L71363 74774
L71391 74849
L71461 74886
L71536 74886
" />
<path d="M71911 74886
L71841 74849
L71813 74774
L71897 74099
" />
<path d="M72516 74849
L72436 74886
L72286 74886
L72216 74849
L72187 74774
L72225 74474
L72272 74399
L72352 74361
L72501 74361
L72572 74399
L72600 74474
L72591 74549
L72206 74624
" />
<path d="M72895 74811
L72928 74849
L72886 74886
L72853 74849
L72895 74811
L72886 74886
" />
<path d="M72947 74399
L72980 74436
L72937 74474
L72905 74436
L72947 74399
L72937 74474
" />
</g>
<g style="fill:#000000; fill-opacity:0.0; 
stroke:#000000; stroke-width:39.3701; stroke-opacity:1; 
stroke-linecap:round; stroke-linejoin:round;">
</g>
<g style="fill:#000000; fill-opacity:0.0; 
stroke:#000000; stroke-width:59.0551; stroke-opacity:1; 
stroke-linecap:round; stroke-linejoin:round;">
<path d="M70446 73070
L70249 73070
" />
<path d="M70249 73380
L70249 72789
L70530 72789
" />
<path d="M70755 73380
L70755 72986
" />
<path d="M70755 72789
L70727 72817
L70755 72845
L70784 72817
L70755 72789
L70755 72845
" />
<path d="M71121 73380
L71065 73352
L71037 73295
L71037 72789
" />
<path d="M71571 73352
L71515 73380
L71402 73380
L71346 73352
L71318 73295
L71318 73070
L71346 73014
L71402 72986
L71515 72986
L71571 73014
L71599 73070
L71599 73127
L71318 73183
" />
<path d="M71852 73323
L71880 73352
L71852 73380
L71824 73352
L71852 73323
L71852 73380
" />
<path d="M71852 73014
L71880 73042
L71852 73070
L71824 73042
L71852 73014
L71852 73070
" />
<path d="M72583 72789
L72583 73267
L72611 73323
L72640 73352
L72696 73380
L72808 73380
L72865 73352
L72893 73323
L72921 73267
L72921 72789
" />
<path d="M73174 73352
L73258 73380
L73399 73380
L73455 73352
L73483 73323
L73511 73267
L73511 73211
L73483 73155
L73455 73127
L73399 73099
L73286 73070
L73230 73042
L73202 73014
L73174 72958
L73174 72902
L73202 72845
L73230 72817
L73286 72789
L73427 72789
L73511 72817
" />
<path d="M73961 73070
L74046 73099
L74074 73127
L74102 73183
L74102 73267
L74074 73323
L74046 73352
L73989 73380
L73764 73380
L73764 72789
L73961 72789
L74018 72817
L74046 72845
L74074 72902
L74074 72958
L74046 73014
L74018 73042
L73961 73070
L73764 73070
" />
<path d="M74271 72986
L74496 72986
" />
<path d="M74355 72789
L74355 73295
L74383 73352
L74439 73380
L74496 73380
" />
<path d="M74692 73380
L74692 72986
" />
<path d="M74692 72789
L74664 72817
L74692 72845
L74721 72817
L74692 72789
L74692 72845
" />
<path d="M74974 72986
L74974 73380
" />
<path d="M74974 73042
L75002 73014
L75058 72986
L75142 72986
L75199 73014
L75227 73070
L75227 73380
" />
<path d="M75452 72986
L75592 73380
" />
<path d="M75733 72986
L75592 73380
L75536 73520
L75508 73548
L75452 73577
" />
<path d="M76408 73380
L76408 72789
" />
<path d="M76661 73352
L76745 73380
L76886 73380
L76942 73352
L76970 73323
L76998 73267
L76998 73211
L76970 73155
L76942 73127
L76886 73099
L76773 73070
L76717 73042
L76689 73014
L76661 72958
L76661 72902
L76689 72845
L76717 72817
L76773 72789
L76914 72789
L76998 72817
" />
<path d="M77251 73380
L77251 72789
L77476 72789
L77533 72817
L77561 72845
L77589 72902
L77589 72986
L77561 73042
L77533 73070
L77476 73099
L77251 73099
" />
<path d="M78292 73380
L78292 72789
L78517 72789
L78573 72817
L78601 72845
L78629 72902
L78629 72986
L78601 73042
L78573 73070
L78517 73099
L78292 73099
" />
<path d="M78883 73380
L78883 72986
" />
<path d="M78883 73099
L78911 73042
L78939 73014
L78995 72986
L79051 72986
" />
<path d="M79332 73380
L79276 73352
L79248 73323
L79220 73267
L79220 73099
L79248 73042
L79276 73014
L79332 72986
L79417 72986
L79473 73014
L79501 73042
L79529 73099
L79529 73267
L79501 73323
L79473 73352
L79417 73380
L79332 73380
" />
<path d="M80036 72986
L80036 73464
L80007 73520
L79979 73548
L79923 73577
L79839 73577
L79782 73548
" />
<path d="M80036 73352
L79979 73380
L79867 73380
L79811 73352
L79782 73323
L79754 73267
L79754 73099
L79782 73042
L79811 73014
L79867 72986
L79979 72986
L80036 73014
" />
<path d="M80317 73380
L80317 72986
" />
<path d="M80317 73099
L80345 73042
L80373 73014
L80429 72986
L80485 72986
" />
<path d="M80935 73380
L80935 73070
L80907 73014
L80851 72986
L80739 72986
L80682 73014
" />
<path d="M80935 73352
L80879 73380
L80739 73380
L80682 73352
L80654 73295
L80654 73239
L80682 73183
L80739 73155
L80879 73155
L80935 73127
" />
<path d="M81217 73380
L81217 72986
" />
<path d="M81217 73042
L81245 73014
L81301 72986
L81385 72986
L81442 73014
L81470 73070
L81470 73380
" />
<path d="M81470 73070
L81498 73014
L81554 72986
L81638 72986
L81695 73014
L81723 73070
L81723 73380
" />
<path d="M82004 73380
L82004 72986
" />
<path d="M82004 73042
L82032 73014
L82088 72986
L82173 72986
L82229 73014
L82257 73070
L82257 73380
" />
<path d="M82257 73070
L82285 73014
L82341 72986
L82426 72986
L82482 73014
L82510 73070
L82510 73380
" />
<path d="M83016 73352
L82960 73380
L82848 73380
L82791 73352
L82763 73295
L82763 73070
L82791 73014
L82848 72986
L82960 72986
L83016 73014
L83045 73070
L83045 73127
L82763 73183
" />
<path d="M83298 73380
L83298 72986
" />
<path d="M83298 73099
L83326 73042
L83354 73014
L83410 72986
L83466 72986
" />
<path d="M84085 73211
L84366 73211
" />
<path d="M84029 73380
L84226 72789
L84422 73380
" />
<path d="M84535 72789
L84872 72789
" />
<path d="M84704 73380
L84704 72789
" />
<path d="M84985 72986
L85210 72986
" />
<path d="M85069 72789
L85069 73295
L85097 73352
L85154 73380
L85210 73380
" />
<path d="M85407 73380
L85407 72986
" />
<path d="M85407 72789
L85379 72817
L85407 72845
L85435 72817
L85407 72789
L85407 72845
" />
<path d="M85688 72986
L85688 73380
" />
<path d="M85688 73042
L85716 73014
L85772 72986
L85857 72986
L85913 73014
L85941 73070
L85941 73380
" />
<path d="M86166 72986
L86307 73380
" />
<path d="M86447 72986
L86307 73380
L86250 73520
L86222 73548
L86166 73577
" />
<path d="M86925 72986
L86925 73380
" />
<path d="M86785 72761
L86644 73183
L87010 73183
" />
<path d="M87488 72986
L87488 73380
" />
<path d="M87347 72761
L87206 73183
L87572 73183
" />
<path d="M87797 73323
L87825 73352
L87797 73380
L87769 73352
L87797 73323
L87797 73380
" />
<path d="M88078 73380
L88078 72789
" />
<path d="M88135 73155
L88303 73380
" />
<path d="M88303 72986
L88078 73211
" />
<path d="M88556 73380
L88556 72986
" />
<path d="M88556 72789
L88528 72817
L88556 72845
L88584 72817
L88556 72789
L88556 72845
" />
<path d="M89091 73352
L89034 73380
L88922 73380
L88866 73352
L88838 73323
L88809 73267
L88809 73099
L88838 73042
L88866 73014
L88922 72986
L89034 72986
L89091 73014
" />
<path d="M89597 73380
L89597 73070
L89569 73014
L89512 72986
L89400 72986
L89344 73014
" />
<path d="M89597 73352
L89541 73380
L89400 73380
L89344 73352
L89316 73295
L89316 73239
L89344 73183
L89400 73155
L89541 73155
L89597 73127
" />
<path d="M90131 73380
L90131 72789
" />
<path d="M90131 73352
L90075 73380
L89962 73380
L89906 73352
L89878 73323
L89850 73267
L89850 73099
L89878 73042
L89906 73014
L89962 72986
L90075 72986
L90131 73014
" />
<path d="M90272 73436
L90722 73436
" />
<path d="M90862 72986
L90862 73577
" />
<path d="M90862 73014
L90919 72986
L91031 72986
L91087 73014
L91115 73042
L91144 73099
L91144 73267
L91115 73323
L91087 73352
L91031 73380
L90919 73380
L90862 73352
" />
<path d="M91650 73352
L91593 73380
L91481 73380
L91425 73352
L91397 73323
L91368 73267
L91368 73099
L91397 73042
L91425 73014
L91481 72986
L91593 72986
L91650 73014
" />
<path d="M91903 73380
L91903 72789
" />
<path d="M91903 73014
L91959 72986
L92072 72986
L92128 73014
L92156 73042
L92184 73099
L92184 73267
L92156 73323
L92128 73352
L92072 73380
L91959 73380
L91903 73352
" />
</g>
<g style="fill:#000000; fill-opacity:0.0; 
stroke:#000000; stroke-width:39.3701; stroke-opacity:1; 
stroke-linecap:round; stroke-linejoin:round;">
</g>
<g style="fill:#000000; fill-opacity:0.0; 
stroke:#000000; stroke-width:59.0551; stroke-opacity:1; 
stroke-linecap:round; stroke-linejoin:round;">
<path d="M69685 71459
L112205 71459
" />
</g>
<g style="fill:#000000; fill-opacity:0.0; 
stroke:#000000; stroke-width:39.3701; stroke-opacity:1; 
stroke-linecap:round; stroke-linejoin:round;">
</g>
<g style="fill:#000000; fill-opacity:0.0; 
stroke:#000000; stroke-width:59.0551; stroke-opacity:1; 
stroke-linecap:round; stroke-linejoin:round;">
<path d="M70221 72289
L70305 72317
L70446 72317
L70502 72289
L70530 72260
L70559 72204
L70559 72148
L70530 72092
L70502 72064
L70446 72036
L70334 72007
L70277 71979
L70249 71951
L70221 71895
L70221 71839
L70249 71782
L70277 71754
L70334 71726
L70474 71726
L70559 71754
" />
<path d="M70812 72317
L70812 71726
" />
<path d="M71065 72317
L71065 72007
L71037 71951
L70980 71923
L70896 71923
L70840 71951
L70812 71979
" />
<path d="M71571 72289
L71515 72317
L71402 72317
L71346 72289
L71318 72232
L71318 72007
L71346 71951
L71402 71923
L71515 71923
L71571 71951
L71599 72007
L71599 72064
L71318 72120
" />
<path d="M72077 72289
L72021 72317
L71908 72317
L71852 72289
L71824 72232
L71824 72007
L71852 71951
L71908 71923
L72021 71923
L72077 71951
L72105 72007
L72105 72064
L71824 72120
" />
<path d="M72274 71923
L72499 71923
" />
<path d="M72358 71726
L72358 72232
L72386 72289
L72443 72317
L72499 72317
" />
<path d="M72696 72260
L72724 72289
L72696 72317
L72668 72289
L72696 72260
L72696 72317
" />
<path d="M72696 71951
L72724 71979
L72696 72007
L72668 71979
L72696 71951
L72696 72007
" />
</g>
<g style="fill:#000000; fill-opacity:0.0; 
stroke:#000000; stroke-width:39.3701; stroke-opacity:1; 
stroke-linecap:round; stroke-linejoin:round;">
</g>
<g style="fill:#000000; fill-opacity:0.0; 
stroke:#000000; stroke-width:59.0551; stroke-opacity:1; 
stroke-linecap:round; stroke-linejoin:round;">
<path d="M70221 68745
L70305 68773
L70446 68773
L70502 68745
L70530 68717
L70559 68661
L70559 68605
L70530 68548
L70502 68520
L70446 68492
L70334 68464
L70277 68436
L70249 68408
L70221 68352
L70221 68295
L70249 68239
L70277 68211
L70334 68183
L70474 68183
L70559 68211
" />
<path d="M70924 68183
L71037 68183
L71093 68211
L71149 68267
L71177 68380
L71177 68577
L71149 68689
L71093 68745
L71037 68773
L70924 68773
L70868 68745
L70812 68689
L70784 68577
L70784 68380
L70812 68267
L70868 68211
L70924 68183
" />
<path d="M71430 68183
L71430 68661
L71458 68717
L71487 68745
L71543 68773
L71655 68773
L71712 68745
L71740 68717
L71768 68661
L71768 68183
" />
<path d="M72386 68773
L72190 68492
" />
<path d="M72049 68773
L72049 68183
L72274 68183
L72330 68211
L72358 68239
L72386 68295
L72386 68380
L72358 68436
L72330 68464
L72274 68492
L72049 68492
" />
<path d="M72977 68717
L72949 68745
L72865 68773
L72808 68773
L72724 68745
L72668 68689
L72640 68633
L72611 68520
L72611 68436
L72640 68323
L72668 68267
L72724 68211
L72808 68183
L72865 68183
L72949 68211
L72977 68239
" />
<path d="M73230 68464
L73427 68464
" />
<path d="M73511 68773
L73230 68773
L73230 68183
L73511 68183
" />
<path d="M73764 68717
L73793 68745
L73764 68773
L73736 68745
L73764 68717
L73764 68773
" />
<path d="M73764 68408
L73793 68436
L73764 68464
L73736 68436
L73764 68408
L73764 68464
" />
<path d="M74046 68773
L74046 68183
" />
<path d="M74299 68773
L74299 68464
L74271 68408
L74214 68380
L74130 68380
L74074 68408
L74046 68436
" />
<path d="M74496 68380
L74721 68380
" />
<path d="M74580 68183
L74580 68689
L74608 68745
L74664 68773
L74721 68773
" />
<path d="M74833 68380
L75058 68380
" />
<path d="M74917 68183
L74917 68689
L74946 68745
L75002 68773
L75058 68773
" />
<path d="M75255 68380
L75255 68970
" />
<path d="M75255 68408
L75311 68380
L75424 68380
L75480 68408
L75508 68436
L75536 68492
L75536 68661
L75508 68717
L75480 68745
L75424 68773
L75311 68773
L75255 68745
" />
<path d="M75789 68717
L75817 68745
L75789 68773
L75761 68745
L75789 68717
L75789 68773
" />
<path d="M75789 68408
L75817 68436
L75789 68464
L75761 68436
L75789 68408
L75789 68464
" />
<path d="M76492 68155
L75986 68914
" />
<path d="M77111 68155
L76605 68914
" />
<path d="M77561 68773
L77561 68464
L77533 68408
L77476 68380
L77364 68380
L77308 68408
" />
<path d="M77561 68745
L77505 68773
L77364 68773
L77308 68745
L77280 68689
L77280 68633
L77308 68577
L77364 68548
L77505 68548
L77561 68520
" />
<path d="M78095 68745
L78039 68773
L77926 68773
L77870 68745
L77842 68717
L77814 68661
L77814 68492
L77842 68436
L77870 68408
L77926 68380
L78039 68380
L78095 68408
" />
<path d="M78601 68773
L78601 68464
L78573 68408
L78517 68380
L78404 68380
L78348 68408
" />
<path d="M78601 68745
L78545 68773
L78404 68773
L78348 68745
L78320 68689
L78320 68633
L78348 68577
L78404 68548
L78545 68548
L78601 68520
" />
<path d="M79136 68773
L79136 68183
" />
<path d="M79136 68745
L79079 68773
L78967 68773
L78911 68745
L78883 68717
L78854 68661
L78854 68492
L78883 68436
L78911 68408
L78967 68380
L79079 68380
L79136 68408
" />
<path d="M79642 68745
L79586 68773
L79473 68773
L79417 68745
L79389 68689
L79389 68464
L79417 68408
L79473 68380
L79586 68380
L79642 68408
L79670 68464
L79670 68520
L79389 68577
" />
<path d="M79923 68773
L79923 68380
" />
<path d="M79923 68436
L79951 68408
L80007 68380
L80092 68380
L80148 68408
L80176 68464
L80176 68773
" />
<path d="M80176 68464
L80204 68408
L80260 68380
L80345 68380
L80401 68408
L80429 68464
L80429 68773
" />
<path d="M80654 68380
L80795 68773
" />
<path d="M80935 68380
L80795 68773
L80739 68914
L80710 68942
L80654 68970
" />
<path d="M81160 68717
L81188 68745
L81160 68773
L81132 68745
L81160 68717
L81160 68773
" />
<path d="M81695 68745
L81638 68773
L81526 68773
L81470 68745
L81442 68717
L81413 68661
L81413 68492
L81442 68436
L81470 68408
L81526 68380
L81638 68380
L81695 68408
" />
<path d="M81948 68773
L81948 68183
" />
<path d="M81948 68408
L82004 68380
L82117 68380
L82173 68408
L82201 68436
L82229 68492
L82229 68661
L82201 68717
L82173 68745
L82117 68773
L82004 68773
L81948 68745
" />
<path d="M82735 68773
L82735 68464
L82707 68408
L82651 68380
L82538 68380
L82482 68408
" />
<path d="M82735 68745
L82679 68773
L82538 68773
L82482 68745
L82454 68689
L82454 68633
L82482 68577
L82538 68548
L82679 68548
L82735 68520
" />
<path d="M83016 68717
L83045 68745
L83016 68773
L82988 68745
L83016 68717
L83016 68773
" />
<path d="M83298 68773
L83298 68380
" />
<path d="M83298 68436
L83326 68408
L83382 68380
L83466 68380
L83523 68408
L83551 68464
L83551 68773
" />
<path d="M83551 68464
L83579 68408
L83635 68380
L83719 68380
L83776 68408
L83804 68464
L83804 68773
" />
<path d="M84085 68773
L84085 68380
" />
<path d="M84085 68183
L84057 68211
L84085 68239
L84113 68211
L84085 68183
L84085 68239
" />
<path d="M84282 68380
L84507 68380
" />
<path d="M84366 68183
L84366 68689
L84394 68745
L84451 68773
L84507 68773
" />
<path d="M84704 68717
L84732 68745
L84704 68773
L84676 68745
L84704 68717
L84704 68773
" />
<path d="M85210 68745
L85154 68773
L85041 68773
L84985 68745
L84957 68689
L84957 68464
L84985 68408
L85041 68380
L85154 68380
L85210 68408
L85238 68464
L85238 68520
L84957 68577
" />
<path d="M85744 68773
L85744 68183
" />
<path d="M85744 68745
L85688 68773
L85575 68773
L85519 68745
L85491 68717
L85463 68661
L85463 68492
L85491 68436
L85519 68408
L85575 68380
L85688 68380
L85744 68408
" />
<path d="M86278 68380
L86278 68773
" />
<path d="M86025 68380
L86025 68689
L86054 68745
L86110 68773
L86194 68773
L86250 68745
L86278 68717
" />
<path d="M86982 68155
L86475 68914
" />
<path d="M87431 68745
L87375 68773
L87263 68773
L87206 68745
L87178 68717
L87150 68661
L87150 68492
L87178 68436
L87206 68408
L87263 68380
L87375 68380
L87431 68408
" />
<path d="M87769 68773
L87713 68745
L87685 68689
L87685 68183
" />
<path d="M88247 68773
L88247 68464
L88219 68408
L88163 68380
L88050 68380
L87994 68408
" />
<path d="M88247 68745
L88191 68773
L88050 68773
L87994 68745
L87966 68689
L87966 68633
L87994 68577
L88050 68548
L88191 68548
L88247 68520
" />
<path d="M88500 68745
L88556 68773
L88669 68773
L88725 68745
L88753 68689
L88753 68661
L88725 68605
L88669 68577
L88584 68577
L88528 68548
L88500 68492
L88500 68464
L88528 68408
L88584 68380
L88669 68380
L88725 68408
" />
<path d="M88978 68745
L89034 68773
L89147 68773
L89203 68745
L89231 68689
L89231 68661
L89203 68605
L89147 68577
L89063 68577
L89006 68548
L88978 68492
L88978 68464
L89006 68408
L89063 68380
L89147 68380
L89203 68408
" />
<path d="M89709 68745
L89653 68773
L89541 68773
L89484 68745
L89456 68689
L89456 68464
L89484 68408
L89541 68380
L89653 68380
L89709 68408
L89737 68464
L89737 68520
L89456 68577
" />
<path d="M89962 68745
L90019 68773
L90131 68773
L90187 68745
L90215 68689
L90215 68661
L90187 68605
L90131 68577
L90047 68577
L89991 68548
L89962 68492
L89962 68464
L89991 68408
L90047 68380
L90131 68380
L90187 68408
" />
<path d="M90890 68155
L90384 68914
" />
<path d="M91312 68745
L91256 68773
L91144 68773
L91087 68745
L91059 68689
L91059 68464
L91087 68408
L91144 68380
L91256 68380
L91312 68408
L91340 68464
L91340 68520
L91059 68577
" />
<path d="M91593 68773
L91593 68380
" />
<path d="M91593 68436
L91622 68408
L91678 68380
L91762 68380
L91818 68408
L91847 68464
L91847 68773
" />
<path d="M91847 68464
L91875 68408
L91931 68380
L92015 68380
L92072 68408
L92100 68464
L92100 68773
" />
<path d="M92381 68773
L92381 68183
" />
<path d="M92381 68408
L92437 68380
L92550 68380
L92606 68408
L92634 68436
L92662 68492
L92662 68661
L92634 68717
L92606 68745
L92550 68773
L92437 68773
L92381 68745
" />
<path d="M93140 68745
L93084 68773
L92971 68773
L92915 68745
L92887 68689
L92887 68464
L92915 68408
L92971 68380
L93084 68380
L93140 68408
L93168 68464
L93168 68520
L92887 68577
" />
<path d="M93674 68773
L93674 68183
" />
<path d="M93674 68745
L93618 68773
L93506 68773
L93449 68745
L93421 68717
L93393 68661
L93393 68492
L93421 68436
L93449 68408
L93506 68380
L93618 68380
L93674 68408
" />
<path d="M94209 68773
L94209 68183
" />
<path d="M94209 68745
L94153 68773
L94040 68773
L93984 68745
L93956 68717
L93928 68661
L93928 68492
L93956 68436
L93984 68408
L94040 68380
L94153 68380
L94209 68408
" />
<path d="M94715 68745
L94659 68773
L94546 68773
L94490 68745
L94462 68689
L94462 68464
L94490 68408
L94546 68380
L94659 68380
L94715 68408
L94743 68464
L94743 68520
L94462 68577
" />
<path d="M95249 68773
L95249 68183
" />
<path d="M95249 68745
L95193 68773
L95081 68773
L95024 68745
L94996 68717
L94968 68661
L94968 68492
L94996 68436
L95024 68408
L95081 68380
L95193 68380
L95249 68408
" />
<path d="M95390 68830
L95840 68830
" />
<path d="M95980 68380
L95980 68970
" />
<path d="M95980 68408
L96037 68380
L96149 68380
L96205 68408
L96233 68436
L96262 68492
L96262 68661
L96233 68717
L96205 68745
L96149 68773
L96037 68773
L95980 68745
" />
<path d="M96515 68773
L96515 68380
" />
<path d="M96515 68492
L96543 68436
L96571 68408
L96627 68380
L96683 68380
" />
<path d="M96965 68773
L96908 68745
L96880 68717
L96852 68661
L96852 68492
L96880 68436
L96908 68408
L96965 68380
L97049 68380
L97105 68408
L97133 68436
L97162 68492
L97162 68661
L97133 68717
L97105 68745
L97049 68773
L96965 68773
" />
<path d="M97668 68380
L97668 68858
L97640 68914
L97611 68942
L97555 68970
L97471 68970
L97415 68942
" />
<path d="M97668 68745
L97611 68773
L97499 68773
L97443 68745
L97415 68717
L97386 68661
L97386 68492
L97415 68436
L97443 68408
L97499 68380
L97611 68380
L97668 68408
" />
<path d="M97949 68773
L97949 68380
" />
<path d="M97949 68492
L97977 68436
L98005 68408
L98061 68380
L98118 68380
" />
<path d="M98568 68773
L98568 68464
L98539 68408
L98483 68380
L98371 68380
L98314 68408
" />
<path d="M98568 68745
L98511 68773
L98371 68773
L98314 68745
L98286 68689
L98286 68633
L98314 68577
L98371 68548
L98511 68548
L98568 68520
" />
<path d="M98849 68773
L98849 68380
" />
<path d="M98849 68436
L98877 68408
L98933 68380
L99018 68380
L99074 68408
L99102 68464
L99102 68773
" />
<path d="M99102 68464
L99130 68408
L99186 68380
L99271 68380
L99327 68408
L99355 68464
L99355 68773
" />
<path d="M99636 68773
L99636 68380
" />
<path d="M99636 68436
L99664 68408
L99721 68380
L99805 68380
L99861 68408
L99889 68464
L99889 68773
" />
<path d="M99889 68464
L99917 68408
L99974 68380
L100058 68380
L100114 68408
L100142 68464
L100142 68773
" />
<path d="M100424 68773
L100424 68380
" />
<path d="M100424 68183
L100395 68211
L100424 68239
L100452 68211
L100424 68183
L100424 68239
" />
<path d="M100705 68380
L100705 68773
" />
<path d="M100705 68436
L100733 68408
L100789 68380
L100874 68380
L100930 68408
L100958 68464
L100958 68773
" />
<path d="M101492 68380
L101492 68858
L101464 68914
L101436 68942
L101380 68970
L101295 68970
L101239 68942
" />
<path d="M101492 68745
L101436 68773
L101323 68773
L101267 68745
L101239 68717
L101211 68661
L101211 68492
L101239 68436
L101267 68408
L101323 68380
L101436 68380
L101492 68408
" />
<path d="M102195 68155
L101689 68914
" />
<path d="M102392 68773
L102392 68380
" />
<path d="M102392 68183
L102364 68211
L102392 68239
L102420 68211
L102392 68183
L102392 68239
" />
<path d="M102673 68380
L102673 68773
" />
<path d="M102673 68436
L102701 68408
L102758 68380
L102842 68380
L102898 68408
L102926 68464
L102926 68773
" />
<path d="M103461 68773
L103461 68183
" />
<path d="M103461 68745
L103404 68773
L103292 68773
L103236 68745
L103208 68717
L103180 68661
L103180 68492
L103208 68436
L103236 68408
L103292 68380
L103404 68380
L103461 68408
" />
<path d="M103967 68745
L103911 68773
L103798 68773
L103742 68745
L103714 68689
L103714 68464
L103742 68408
L103798 68380
L103911 68380
L103967 68408
L103995 68464
L103995 68520
L103714 68577
" />
<path d="M104192 68773
L104501 68380
" />
<path d="M104192 68380
L104501 68773
" />
<path d="M104726 68717
L104754 68745
L104726 68773
L104698 68745
L104726 68717
L104726 68773
" />
<path d="M105007 68773
L105007 68183
" />
<path d="M105260 68773
L105260 68464
L105232 68408
L105176 68380
L105092 68380
L105036 68408
L105007 68436
" />
<path d="M105457 68380
L105682 68380
" />
<path d="M105542 68183
L105542 68689
L105570 68745
L105626 68773
L105682 68773
" />
<path d="M105879 68773
L105879 68380
" />
<path d="M105879 68436
L105907 68408
L105964 68380
L106048 68380
L106104 68408
L106132 68464
L106132 68773
" />
<path d="M106132 68464
L106160 68408
L106217 68380
L106301 68380
L106357 68408
L106385 68464
L106385 68773
" />
<path d="M106751 68773
L106695 68745
L106667 68689
L106667 68183
" />
<path d="M106948 68380
L107370 68380
" />
<path d="M107117 68127
L106948 68886
" />
<path d="M107313 68633
L106892 68633
" />
<path d="M107145 68886
L107313 68127
" />
<path d="M107566 68380
L107566 68970
" />
<path d="M107566 68408
L107623 68380
L107735 68380
L107791 68408
L107820 68436
L107848 68492
L107848 68661
L107820 68717
L107791 68745
L107735 68773
L107623 68773
L107566 68745
" />
<path d="M108101 68773
L108101 68380
" />
<path d="M108101 68492
L108129 68436
L108157 68408
L108213 68380
L108269 68380
" />
<path d="M108551 68773
L108494 68745
L108466 68717
L108438 68661
L108438 68492
L108466 68436
L108494 68408
L108551 68380
L108635 68380
L108691 68408
L108719 68436
L108748 68492
L108748 68661
L108719 68717
L108691 68745
L108635 68773
L108551 68773
" />
<path d="M109254 68380
L109254 68858
L109226 68914
L109197 68942
L109141 68970
L109057 68970
L109001 68942
" />
<path d="M109254 68745
L109197 68773
L109085 68773
L109029 68745
L109001 68717
L108973 68661
L108973 68492
L109001 68436
L109029 68408
L109085 68380
L109197 68380
L109254 68408
" />
<path d="M109535 68773
L109535 68380
" />
<path d="M109535 68492
L109563 68436
L109591 68408
L109647 68380
L109704 68380
" />
<path d="M110154 68773
L110154 68464
L110126 68408
L110069 68380
L109957 68380
L109901 68408
" />
<path d="M110154 68745
L110097 68773
L109957 68773
L109901 68745
L109872 68689
L109872 68633
L109901 68577
L109957 68548
L110097 68548
L110154 68520
" />
<path d="M110435 68773
L110435 68380
" />
<path d="M110435 68436
L110463 68408
L110519 68380
L110604 68380
L110660 68408
L110688 68464
L110688 68773
" />
<path d="M110688 68464
L110716 68408
L110772 68380
L110857 68380
L110913 68408
L110941 68464
L110941 68773
" />
<path d="M111222 68773
L111222 68380
" />
<path d="M111222 68436
L111250 68408
L111307 68380
L111391 68380
L111447 68408
L111475 68464
L111475 68773
" />
<path d="M111475 68464
L111503 68408
L111560 68380
L111644 68380
L111700 68408
L111728 68464
L111728 68773
" />
<path d="M112235 68745
L112178 68773
L112066 68773
L112010 68745
L111982 68689
L111982 68464
L112010 68408
L112066 68380
L112178 68380
L112235 68408
L112263 68464
L112263 68520
L111982 68577
" />
<path d="M112516 68773
L112516 68380
" />
<path d="M112516 68492
L112544 68436
L112572 68408
L112628 68380
L112685 68380
" />
<path d="M112853 68745
L112910 68773
L113022 68773
L113078 68745
L113106 68689
L113106 68661
L113078 68605
L113022 68577
L112938 68577
L112881 68548
L112853 68492
L112853 68464
L112881 68408
L112938 68380
L113022 68380
L113078 68408
" />
</g>
<g style="fill:#000000; fill-opacity:0.0; 
stroke:#000000; stroke-width:39.3701; stroke-opacity:1; 
stroke-linecap:round; stroke-linejoin:round;">
</g>
<g style="fill:#000000; fill-opacity:0.0; 
stroke:#000000; stroke-width:59.0551; stroke-opacity:1; 
stroke-linecap:round; stroke-linejoin:round;">
<path d="M70530 67592
L70249 67592
L70249 67002
" />
<path d="M70727 67592
L70727 67002
" />
<path d="M71346 67536
L71318 67564
L71233 67592
L71177 67592
L71093 67564
L71037 67508
L71009 67452
L70980 67339
L70980 67255
L71009 67142
L71037 67086
L71093 67030
L71177 67002
L71233 67002
L71318 67030
L71346 67058
" />
<path d="M71599 67283
L71796 67283
" />
<path d="M71880 67592
L71599 67592
L71599 67002
L71880 67002
" />
<path d="M72133 67592
L72133 67002
L72471 67592
L72471 67002
" />
<path d="M72724 67564
L72808 67592
L72949 67592
L73005 67564
L73033 67536
L73061 67480
L73061 67424
L73033 67367
L73005 67339
L72949 67311
L72836 67283
L72780 67255
L72752 67227
L72724 67171
L72724 67114
L72752 67058
L72780 67030
L72836 67002
L72977 67002
L73061 67030
" />
<path d="M73314 67283
L73511 67283
" />
<path d="M73596 67592
L73314 67592
L73314 67002
L73596 67002
" />
<path d="M73849 67536
L73877 67564
L73849 67592
L73821 67564
L73849 67536
L73849 67592
" />
<path d="M73849 67227
L73877 67255
L73849 67283
L73821 67255
L73849 67227
L73849 67283
" />
<path d="M74580 67592
L74580 67002
L74777 67424
L74974 67002
L74974 67592
" />
<path d="M75255 67592
L75255 67002
" />
<path d="M75452 67002
L75789 67002
" />
<path d="M75620 67592
L75620 67002
" />
</g>
<g style="fill:#000000; fill-opacity:0.0; 
stroke:#000000; stroke-width:39.3701; stroke-opacity:1; 
stroke-linecap:round; stroke-linejoin:round;">
</g>
<g style="fill:#000000; fill-opacity:0.0; 
stroke:#000000; stroke-width:59.0551; stroke-opacity:1; 
stroke-linecap:round; stroke-linejoin:round;">
<path d="M70221 66242
L70502 66242
" />
<path d="M70165 66411
L70362 65821
L70559 66411
" />
<path d="M70755 65821
L70755 66299
L70784 66355
L70812 66383
L70868 66411
L70980 66411
L71037 66383
L71065 66355
L71093 66299
L71093 65821
" />
<path d="M71290 65821
L71627 65821
" />
<path d="M71458 66411
L71458 65821
" />
<path d="M71824 66411
L71824 65821
" />
<path d="M71824 66102
L72162 66102
" />
<path d="M72162 66411
L72162 65821
" />
<path d="M72555 65821
L72668 65821
L72724 65849
L72780 65905
L72808 66018
L72808 66214
L72780 66327
L72724 66383
L72668 66411
L72555 66411
L72499 66383
L72443 66327
L72415 66214
L72415 66018
L72443 65905
L72499 65849
L72555 65821
" />
<path d="M73399 66411
L73202 66130
" />
<path d="M73061 66411
L73061 65821
L73286 65821
L73343 65849
L73371 65877
L73399 65933
L73399 66018
L73371 66074
L73343 66102
L73286 66130
L73061 66130
" />
<path d="M73652 66355
L73680 66383
L73652 66411
L73624 66383
L73652 66355
L73652 66411
" />
<path d="M73652 66046
L73680 66074
L73652 66102
L73624 66074
L73652 66046
L73652 66102
" />
<path d="M74355 66242
L74636 66242
" />
<path d="M74299 66411
L74496 65821
L74692 66411
" />
<path d="M75086 66102
L75171 66130
L75199 66158
L75227 66214
L75227 66299
L75199 66355
L75171 66383
L75114 66411
L74889 66411
L74889 65821
L75086 65821
L75142 65849
L75171 65877
L75199 65933
L75199 65989
L75171 66046
L75142 66074
L75086 66102
L74889 66102
" />
<path d="M75480 66411
L75480 65821
L75620 65821
L75705 65849
L75761 65905
L75789 65961
L75817 66074
L75817 66158
L75789 66271
L75761 66327
L75705 66383
L75620 66411
L75480 66411
" />
<path d="M76183 65821
L76295 65821
L76352 65849
L76408 65905
L76436 66018
L76436 66214
L76408 66327
L76352 66383
L76295 66411
L76183 66411
L76127 66383
L76070 66327
L76042 66214
L76042 66018
L76070 65905
L76127 65849
L76183 65821
" />
<path d="M76689 66411
L76689 65821
L77027 66411
L77027 65821
" />
<path d="M77673 65821
L78011 65821
" />
<path d="M77842 66411
L77842 65821
" />
<path d="M78545 66411
L78348 66130
" />
<path d="M78208 66411
L78208 65821
L78433 65821
L78489 65849
L78517 65877
L78545 65933
L78545 66018
L78517 66074
L78489 66102
L78433 66130
L78208 66130
" />
<path d="M78911 65821
L79023 65821
L79079 65849
L79136 65905
L79164 66018
L79164 66214
L79136 66327
L79079 66383
L79023 66411
L78911 66411
L78854 66383
L78798 66327
L78770 66214
L78770 66018
L78798 65905
L78854 65849
L78911 65821
" />
<path d="M79754 66355
L79726 66383
L79642 66411
L79586 66411
L79501 66383
L79445 66327
L79417 66271
L79389 66158
L79389 66074
L79417 65961
L79445 65905
L79501 65849
L79586 65821
L79642 65821
L79726 65849
L79754 65877
" />
<path d="M80007 66411
L80007 65821
" />
<path d="M80007 66102
L80345 66102
" />
<path d="M80345 66411
L80345 65821
" />
<path d="M80626 66102
L80823 66102
" />
<path d="M80907 66411
L80626 66411
L80626 65821
L80907 65821
" />
</g>
<g style="fill:#000000; fill-opacity:0.0; 
stroke:#000000; stroke-width:39.3701; stroke-opacity:1; 
stroke-linecap:round; stroke-linejoin:round;">
</g>
<g style="fill:#000000; fill-opacity:0.0; 
stroke:#000000; stroke-width:59.0551; stroke-opacity:1; 
stroke-linecap:round; stroke-linejoin:round;">
<path d="M77559 75396
L77559 76577
" />
</g>
<g style="fill:#000000; fill-opacity:0.0; 
stroke:#000000; stroke-width:39.3701; stroke-opacity:1; 
stroke-linecap:round; stroke-linejoin:round;">
</g>
<g style="fill:#000000; fill-opacity:0.0; 
stroke:#000000; stroke-width:59.0551; stroke-opacity:1; 
stroke-linecap:round; stroke-linejoin:round;">
<path d="M102756 75396
L102756 77955
" />
</g>
<g style="fill:#008484; fill-opacity:0.0; 
stroke:#008484; stroke-width:59.0551; stroke-opacity:1; 
stroke-linecap:round; stroke-linejoin:round;">
</g>
<g style="fill:#008484; fill-opacity:0.0; 
stroke:#008484; stroke-width:26; stroke-opacity:1; 
stroke-linecap:round; stroke-linejoin:round;">
<path d="M46778 32043
L46778 32357
" />
<path d="M46778 32357
L46622 32357
" />
<path d="M46622 32043
L46622 32357
" />
<path d="M46778 32043
L46622 32043
" />
<path d="M55773 37057
L55773 36743
" />
<path d="M55773 36743
L55929 36743
" />
<path d="M55929 37057
L55929 36743
" />
<path d="M55773 37057
L55929 37057
" />
<path d="M53078 36443
L53078 36757
" />
<path d="M53078 36757
L52922 36757
" />
<path d="M52922 36443
L52922 36757
" />
<path d="M53078 36443
L52922 36443
" />
<path d="M44022 32357
L44022 32043
" />
<path d="M44022 32043
L44178 32043
" />
<path d="M44178 32357
L44178 32043
" />
<path d="M44022 32357
L44178 32357
" />
<path d="M41643 32622
L41957 32622
" />
<path d="M41957 32622
L41957 32778
" />
<path d="M41643 32778
L41957 32778
" />
<path d="M41643 32622
L41643 32778
" />
<path d="M45671 34157
L45671 33843
" />
<path d="M45671 33843
L45827 33843
" />
<path d="M45827 34157
L45827 33843
" />
<path d="M45671 34157
L45827 34157
" />
<path d="M45671 35357
L45671 35043
" />
<path d="M45671 35043
L45827 35043
" />
<path d="M45827 35357
L45827 35043
" />
<path d="M45671 35357
L45827 35357
" />
</g>
<g style="fill:#008484; fill-opacity:0.0; 
stroke:#008484; stroke-width:50; stroke-opacity:1; 
stroke-linecap:round; stroke-linejoin:round;">
<path d="M52150 32700
L52500 32700
" />
</g>
<g style="fill:#008484; fill-opacity:0.0; 
stroke:#008484; stroke-width:26; stroke-opacity:1; 
stroke-linecap:round; stroke-linejoin:round;">
<path d="M49878 38243
L49878 38557
" />
<path d="M49878 38557
L49722 38557
" />
<path d="M49722 38243
L49722 38557
" />
<path d="M49878 38243
L49722 38243
" />
<path d="M47422 38557
L47422 38243
" />
<path d="M47422 38243
L47578 38243
" />
<path d="M47578 38557
L47578 38243
" />
<path d="M47422 38557
L47578 38557
" />
<path d="M55978 38243
L55978 38557
" />
<path d="M55978 38557
L55822 38557
" />
<path d="M55822 38243
L55822 38557
" />
<path d="M55978 38243
L55822 38243
" />
</g>
<g style="fill:#008484; fill-opacity:0.0; 
stroke:#008484; stroke-width:39.3701; stroke-opacity:1; 
stroke-linecap:round; stroke-linejoin:round;">
<path d="M48625 37354
L48507 37354
" />
<path d="M48625 37354
L48743 37354
" />
<path d="M48625 36645
L48507 36645
" />
<path d="M48625 36645
L48743 36645
" />
<path d="M49373 37275
L49373 36724
" />
<path d="M44283 34577
L43516 34577
" />
<path d="M44283 34537
L43516 34537
" />
<path d="M44283 35541
L44195 35541
" />
<path d="M44283 35423
L44283 35541
" />
<path d="M43516 35541
L43516 35443
" />
<path d="M43614 35541
L43516 35541
" />
<path d="M44283 34498
L43516 34498
" />
<path d="M44283 34636
L44283 34498
" />
<path d="M43516 34636
L43516 34498
" />
<path d="M43283 33777
L42516 33777
" />
<path d="M43283 33737
L42516 33737
" />
<path d="M43283 34741
L43195 34741
" />
<path d="M43283 34623
L43283 34741
" />
<path d="M42516 34741
L42516 34643
" />
<path d="M42614 34741
L42516 34741
" />
<path d="M43283 33698
L42516 33698
" />
<path d="M43283 33836
L43283 33698
" />
<path d="M42516 33836
L42516 33698
" />
</g>
<g style="fill:#008484; fill-opacity:0.0; 
stroke:#008484; stroke-width:47.2441; stroke-opacity:1; 
stroke-linecap:round; stroke-linejoin:round;">
<path d="M47653 34400
L47653 35758
" />
<path d="M47653 34400
L47653 33632
" />
<path d="M51146 34400
L51146 35167
" />
<path d="M51146 34400
L51146 33632
" />
</g>
<g style="fill:#008484; fill-opacity:0.0; 
stroke:#008484; stroke-width:39.3701; stroke-opacity:1; 
stroke-linecap:round; stroke-linejoin:round;">
<path d="M36537 32364
L36734 32364
" />
<path d="M36537 32364
L36537 32561
" />
<path d="M36537 35435
L36734 35435
" />
<path d="M36537 35435
L36537 35238
" />
<path d="M38900 35435
L38703 35435
" />
<path d="M38900 35435
L39096 35435
" />
<path d="M40238 34766
L40238 35120
" />
<path d="M40238 33033
L40238 32679
" />
<path d="M38900 32364
L38703 32364
" />
<path d="M38900 32364
L39096 32364
" />
</g>
<g style="fill:#008484; fill-opacity:0.0; 
stroke:#008484; stroke-width:50; stroke-opacity:1; 
stroke-linecap:round; stroke-linejoin:round;">
<path d="M46650 32328
L46570 32214
" />
<path d="M46512 32328
L46512 32088
L46604 32088
L46627 32100
L46638 32111
L46650 32134
L46650 32168
L46638 32191
L46627 32202
L46604 32214
L46512 32214
" />
<path d="M46764 32328
L46810 32328
L46832 32317
L46844 32305
L46867 32271
L46878 32225
L46878 32134
L46867 32111
L46855 32100
L46832 32088
L46787 32088
L46764 32100
L46752 32111
L46741 32134
L46741 32191
L46752 32214
L46764 32225
L46787 32237
L46832 32237
L46855 32225
L46867 32214
L46878 32191
" />
<path d="M45928 32758
L45928 32930
L45917 32964
L45894 32987
L45860 32998
L45837 32998
" />
<path d="M46042 32758
L46042 32952
L46054 32975
L46065 32987
L46088 32998
L46134 32998
L46157 32987
L46168 32975
L46180 32952
L46180 32758
" />
<path d="M46294 32998
L46294 32758
L46374 32930
L46454 32758
L46454 32998
" />
<path d="M46568 32998
L46568 32758
L46660 32758
L46682 32770
L46694 32781
L46705 32804
L46705 32838
L46694 32861
L46682 32872
L46660 32884
L46568 32884
" />
<path d="M46808 32872
L46888 32872
" />
<path d="M46922 32998
L46808 32998
L46808 32758
L46922 32758
" />
<path d="M47162 32998
L47082 32884
" />
<path d="M47025 32998
L47025 32758
L47117 32758
L47140 32770
L47151 32781
L47162 32804
L47162 32838
L47151 32861
L47140 32872
L47117 32884
L47025 32884
" />
<path d="M47254 32781
L47265 32770
L47288 32758
L47345 32758
L47368 32770
L47380 32781
L47391 32804
L47391 32827
L47380 32861
L47242 32998
L47391 32998
" />
<path d="M55800 37038
L55720 36924
" />
<path d="M55662 37038
L55662 36798
L55754 36798
L55777 36810
L55788 36821
L55800 36844
L55800 36878
L55788 36901
L55777 36912
L55754 36924
L55662 36924
" />
<path d="M55937 36901
L55914 36890
L55902 36878
L55891 36855
L55891 36844
L55902 36821
L55914 36810
L55937 36798
L55982 36798
L56005 36810
L56017 36821
L56028 36844
L56028 36855
L56017 36878
L56005 36890
L55982 36901
L55937 36901
L55914 36912
L55902 36924
L55891 36947
L55891 36992
L55902 37015
L55914 37027
L55937 37038
L55982 37038
L56005 37027
L56017 37015
L56028 36992
L56028 36947
L56017 36924
L56005 36912
L55982 36901
" />
<path d="M55708 37608
L55571 37608
" />
<path d="M55639 37608
L55639 37368
L55616 37402
L55593 37425
L55571 37437
" />
<path d="M55856 37368
L55879 37368
L55902 37380
L55913 37391
L55925 37414
L55936 37460
L55936 37517
L55925 37562
L55913 37585
L55902 37597
L55879 37608
L55856 37608
L55833 37597
L55822 37585
L55811 37562
L55799 37517
L55799 37460
L55811 37414
L55822 37391
L55833 37380
L55856 37368
" />
<path d="M56039 37608
L56039 37368
" />
<path d="M56062 37517
L56131 37608
" />
<path d="M56131 37448
L56039 37540
" />
<path d="M53000 36688
L52920 36574
" />
<path d="M52862 36688
L52862 36448
L52954 36448
L52977 36460
L52988 36471
L53000 36494
L53000 36528
L52988 36551
L52977 36562
L52954 36574
L52862 36574
" />
<path d="M53205 36448
L53160 36448
L53137 36460
L53125 36471
L53102 36505
L53091 36551
L53091 36642
L53102 36665
L53114 36677
L53137 36688
L53182 36688
L53205 36677
L53217 36665
L53228 36642
L53228 36585
L53217 36562
L53205 36551
L53182 36540
L53137 36540
L53114 36551
L53102 36562
L53091 36585
" />
<path d="M52358 37168
L52358 37340
L52347 37374
L52324 37397
L52290 37408
L52267 37408
" />
<path d="M52472 37168
L52472 37362
L52484 37385
L52495 37397
L52518 37408
L52564 37408
L52587 37397
L52598 37385
L52610 37362
L52610 37168
" />
<path d="M52724 37408
L52724 37168
L52804 37340
L52884 37168
L52884 37408
" />
<path d="M52998 37408
L52998 37168
L53090 37168
L53112 37180
L53124 37191
L53135 37214
L53135 37248
L53124 37271
L53112 37282
L53090 37294
L52998 37294
" />
<path d="M53238 37282
L53318 37282
" />
<path d="M53352 37408
L53238 37408
L53238 37168
L53352 37168
" />
<path d="M53592 37408
L53512 37294
" />
<path d="M53455 37408
L53455 37168
L53547 37168
L53570 37180
L53581 37191
L53592 37214
L53592 37248
L53581 37271
L53570 37282
L53547 37294
L53455 37294
" />
<path d="M53821 37408
L53684 37408
" />
<path d="M53752 37408
L53752 37168
L53730 37202
L53707 37225
L53684 37237
" />
<path d="M44010 32318
L43930 32204
" />
<path d="M43872 32318
L43872 32078
L43964 32078
L43987 32090
L43998 32101
L44010 32124
L44010 32158
L43998 32181
L43987 32192
L43964 32204
L43872 32204
" />
<path d="M44227 32078
L44112 32078
L44101 32192
L44112 32181
L44135 32170
L44192 32170
L44215 32181
L44227 32192
L44238 32215
L44238 32272
L44227 32295
L44215 32307
L44192 32318
L44135 32318
L44112 32307
L44101 32295
" />
<path d="M43917 32748
L43917 32908
" />
<path d="M43860 32657
L43802 32828
L43951 32828
" />
<path d="M44054 32908
L44100 32908
L44122 32897
L44134 32885
L44157 32851
L44168 32805
L44168 32714
L44157 32691
L44145 32680
L44122 32668
L44077 32668
L44054 32680
L44042 32691
L44031 32714
L44031 32771
L44042 32794
L44054 32805
L44077 32817
L44122 32817
L44145 32805
L44157 32794
L44168 32771
" />
<path d="M44282 32908
L44328 32908
L44351 32897
L44362 32885
L44385 32851
L44397 32805
L44397 32714
L44385 32691
L44374 32680
L44351 32668
L44305 32668
L44282 32680
L44271 32691
L44260 32714
L44260 32771
L44271 32794
L44282 32805
L44305 32817
L44351 32817
L44374 32805
L44385 32794
L44397 32771
" />
<path d="M41938 32740
L41824 32820
" />
<path d="M41938 32877
L41698 32877
L41698 32785
L41710 32762
L41721 32751
L41744 32740
L41778 32740
L41801 32751
L41812 32762
L41824 32785
L41824 32877
" />
<path d="M41778 32534
L41938 32534
" />
<path d="M41687 32591
L41858 32648
L41858 32500
" />
<path d="M41308 32728
L41308 32865
" />
<path d="M41308 32797
L41068 32797
L41102 32820
L41125 32842
L41137 32865
" />
<path d="M41308 32625
L41068 32625
" />
<path d="M41217 32602
L41308 32534
" />
<path d="M41148 32534
L41240 32625
" />
<path d="M45709 34148
L45629 34034
" />
<path d="M45571 34148
L45571 33908
L45663 33908
L45686 33920
L45697 33931
L45709 33954
L45709 33988
L45697 34011
L45686 34022
L45663 34034
L45571 34034
" />
<path d="M45789 33908
L45937 33908
L45857 34000
L45891 34000
L45914 34011
L45926 34022
L45937 34045
L45937 34102
L45926 34125
L45914 34137
L45891 34148
L45823 34148
L45800 34137
L45789 34125
" />
<path d="M45589 34708
L45451 34708
" />
<path d="M45520 34708
L45520 34468
L45497 34502
L45474 34525
L45451 34537
" />
<path d="M45737 34468
L45760 34468
L45783 34480
L45794 34491
L45806 34514
L45817 34560
L45817 34617
L45806 34662
L45794 34685
L45783 34697
L45760 34708
L45737 34708
L45714 34697
L45703 34685
L45691 34662
L45680 34617
L45680 34560
L45691 34514
L45703 34491
L45714 34480
L45737 34468
" />
<path d="M45966 34468
L45989 34468
L46011 34480
L46023 34491
L46034 34514
L46046 34560
L46046 34617
L46034 34662
L46023 34685
L46011 34697
L45989 34708
L45966 34708
L45943 34697
L45931 34685
L45920 34662
L45909 34617
L45909 34560
L45920 34514
L45931 34491
L45943 34480
L45966 34468
" />
<path d="M45690 35288
L45610 35174
" />
<path d="M45552 35288
L45552 35048
L45644 35048
L45667 35060
L45678 35071
L45690 35094
L45690 35128
L45678 35151
L45667 35162
L45644 35174
L45552 35174
" />
<path d="M45781 35071
L45792 35060
L45815 35048
L45872 35048
L45895 35060
L45907 35071
L45918 35094
L45918 35117
L45907 35151
L45770 35288
L45918 35288
" />
<path d="M45589 35908
L45451 35908
" />
<path d="M45520 35908
L45520 35668
L45497 35702
L45474 35725
L45451 35737
" />
<path d="M45737 35668
L45760 35668
L45783 35680
L45794 35691
L45806 35714
L45817 35760
L45817 35817
L45806 35862
L45794 35885
L45783 35897
L45760 35908
L45737 35908
L45714 35897
L45703 35885
L45691 35862
L45680 35817
L45680 35760
L45691 35714
L45703 35691
L45714 35680
L45737 35668
" />
<path d="M45966 35668
L45989 35668
L46011 35680
L46023 35691
L46034 35714
L46046 35760
L46046 35817
L46034 35862
L46023 35885
L46011 35897
L45989 35908
L45966 35908
L45943 35897
L45931 35885
L45920 35862
L45909 35817
L45909 35760
L45920 35714
L45931 35691
L45943 35680
L45966 35668
" />
<path d="M53458 34130
L53630 34130
L53664 34141
L53687 34164
L53698 34198
L53698 34221
" />
<path d="M53538 33912
L53698 33912
" />
<path d="M53447 33970
L53618 34027
L53618 33878
" />
<path d="M55368 35495
L55128 35495
" />
<path d="M55357 35392
L55368 35358
L55368 35301
L55357 35278
L55345 35267
L55322 35255
L55300 35255
L55277 35267
L55265 35278
L55254 35301
L55242 35347
L55231 35370
L55220 35381
L55197 35392
L55174 35392
L55151 35381
L55140 35370
L55128 35347
L55128 35290
L55140 35255
" />
<path d="M55368 35152
L55128 35152
L55128 35061
L55140 35038
L55151 35027
L55174 35015
L55208 35015
L55231 35027
L55242 35038
L55254 35061
L55254 35152
" />
<path d="M55277 34912
L55277 34730
" />
<path d="M55345 34478
L55357 34490
L55368 34524
L55368 34547
L55357 34581
L55334 34604
L55311 34615
L55265 34627
L55231 34627
L55185 34615
L55162 34604
L55140 34581
L55128 34547
L55128 34524
L55140 34490
L55151 34478
" />
<path d="M55128 34330
L55128 34284
L55140 34261
L55162 34238
L55208 34227
L55288 34227
L55334 34238
L55357 34261
L55368 34284
L55368 34330
L55357 34352
L55334 34375
L55288 34387
L55208 34387
L55162 34375
L55140 34352
L55128 34330
" />
<path d="M55368 34124
L55128 34124
L55368 33987
L55128 33987
" />
<path d="M55368 33872
L55128 33872
L55368 33735
L55128 33735
" />
<path d="M55242 33621
L55242 33541
" />
<path d="M55368 33507
L55368 33621
L55128 33621
L55128 33507
" />
<path d="M55345 33267
L55357 33278
L55368 33312
L55368 33335
L55357 33370
L55334 33392
L55311 33404
L55265 33415
L55231 33415
L55185 33404
L55162 33392
L55140 33370
L55128 33335
L55128 33312
L55140 33278
L55151 33267
" />
<path d="M55128 33198
L55128 33061
" />
<path d="M55368 33130
L55128 33130
" />
<path d="M55128 32935
L55128 32890
L55140 32867
L55162 32844
L55208 32832
L55288 32832
L55334 32844
L55357 32867
L55368 32890
L55368 32935
L55357 32958
L55334 32981
L55288 32992
L55208 32992
L55162 32981
L55140 32958
L55128 32935
" />
<path d="M55368 32592
L55254 32672
" />
<path d="M55368 32730
L55128 32730
L55128 32638
L55140 32615
L55151 32604
L55174 32592
L55208 32592
L55231 32604
L55242 32615
L55254 32638
L55254 32730
" />
<path d="M49760 38495
L49748 38507
L49714 38518
L49691 38518
L49657 38507
L49634 38484
L49622 38461
L49611 38415
L49611 38381
L49622 38335
L49634 38312
L49657 38290
L49691 38278
L49714 38278
L49748 38290
L49760 38301
" />
<path d="M49840 38278
L49988 38278
L49908 38370
L49942 38370
L49965 38381
L49977 38392
L49988 38415
L49988 38472
L49977 38495
L49965 38507
L49942 38518
L49874 38518
L49851 38507
L49840 38495
" />
<path d="M49532 39128
L49395 39128
" />
<path d="M49464 39128
L49464 38888
L49441 38922
L49418 38945
L49395 38957
" />
<path d="M49681 38888
L49704 38888
L49727 38900
L49738 38911
L49750 38934
L49761 38980
L49761 39037
L49750 39082
L49738 39105
L49727 39117
L49704 39128
L49681 39128
L49658 39117
L49647 39105
L49635 39082
L49624 39037
L49624 38980
L49635 38934
L49647 38911
L49658 38900
L49681 38888
" />
<path d="M49864 38968
L49864 39208
" />
<path d="M49864 38980
L49887 38968
L49932 38968
L49955 38980
L49967 38991
L49978 39014
L49978 39082
L49967 39105
L49955 39117
L49932 39128
L49887 39128
L49864 39117
" />
<path d="M50161 39002
L50081 39002
" />
<path d="M50081 39128
L50081 38888
L50195 38888
" />
<path d="M47480 38495
L47468 38507
L47434 38518
L47411 38518
L47377 38507
L47354 38484
L47342 38461
L47331 38415
L47331 38381
L47342 38335
L47354 38312
L47377 38290
L47411 38278
L47434 38278
L47468 38290
L47480 38301
" />
<path d="M47571 38301
L47582 38290
L47605 38278
L47662 38278
L47685 38290
L47697 38301
L47708 38324
L47708 38347
L47697 38381
L47560 38518
L47708 38518
" />
<path d="M47242 39108
L47105 39108
" />
<path d="M47174 39108
L47174 38868
L47151 38902
L47128 38925
L47105 38937
" />
<path d="M47391 38868
L47414 38868
L47437 38880
L47448 38891
L47460 38914
L47471 38960
L47471 39017
L47460 39062
L47448 39085
L47437 39097
L47414 39108
L47391 39108
L47368 39097
L47357 39085
L47345 39062
L47334 39017
L47334 38960
L47345 38914
L47357 38891
L47368 38880
L47391 38868
" />
<path d="M47574 38948
L47574 39188
" />
<path d="M47574 38960
L47597 38948
L47642 38948
L47665 38960
L47677 38971
L47688 38994
L47688 39062
L47677 39085
L47665 39097
L47642 39108
L47597 39108
L47574 39097
" />
<path d="M47871 38982
L47791 38982
" />
<path d="M47791 39108
L47791 38868
L47905 38868
" />
<path d="M55890 38495
L55878 38507
L55844 38518
L55821 38518
L55787 38507
L55764 38484
L55752 38461
L55741 38415
L55741 38381
L55752 38335
L55764 38312
L55787 38290
L55821 38278
L55844 38278
L55878 38290
L55890 38301
" />
<path d="M56118 38518
L55981 38518
" />
<path d="M56050 38518
L56050 38278
L56027 38312
L56004 38335
L55981 38347
" />
<path d="M55827 39158
L55690 39158
" />
<path d="M55758 39158
L55758 38918
L55735 38952
L55712 38975
L55690 38987
" />
<path d="M56032 38998
L56032 39158
" />
<path d="M55930 38998
L55930 39124
L55941 39147
L55964 39158
L55998 39158
L56021 39147
L56032 39135
" />
<path d="M56227 39032
L56147 39032
" />
<path d="M56147 39158
L56147 38918
L56261 38918
" />
</g>
<g style="fill:#008484; fill-opacity:0.0; 
stroke:#008484; stroke-width:59.0551; stroke-opacity:1; 
stroke-linecap:round; stroke-linejoin:round;">
<path d="M47883 37524
L48145 37918
" />
<path d="M48145 37524
L47883 37918
" />
<path d="M48239 37524
L48464 37524
" />
<path d="M48351 37918
L48351 37524
" />
<path d="M48576 37805
L48764 37805
" />
<path d="M48539 37918
L48670 37524
L48801 37918
" />
<path d="M49120 37918
L48933 37918
L48933 37524
" />
<path d="M49458 37918
L49233 37918
" />
<path d="M49345 37918
L49345 37524
L49308 37580
L49270 37618
L49233 37636
" />
<path d="M43734 35338
L43734 35076
L44128 35338
L44128 35076
" />
<path d="M43771 34945
L43753 34926
L43734 34888
L43734 34795
L43753 34757
L43771 34738
L43809 34720
L43846 34720
L43903 34738
L44128 34963
L44128 34720
" />
<path d="M42694 34528
L42694 34266
L43088 34528
L43088 34266
" />
<path d="M43088 33910
L43088 34135
" />
<path d="M43088 34022
L42694 34022
L42750 34060
L42788 34097
L42806 34135
" />
<path d="M49204 34699
L49523 34699
L49560 34681
L49579 34662
L49598 34624
L49598 34549
L49579 34512
L49560 34493
L49523 34474
L49204 34474
" />
<path d="M49241 34306
L49223 34287
L49204 34250
L49204 34156
L49223 34118
L49241 34100
L49279 34081
L49316 34081
L49373 34100
L49598 34325
L49598 34081
" />
<path d="M38848 33744
L38848 34025
L38830 34081
L38792 34119
L38736 34138
L38698 34138
" />
<path d="M38998 33744
L39242 33744
L39111 33894
L39167 33894
L39204 33913
L39223 33931
L39242 33969
L39242 34063
L39223 34100
L39204 34119
L39167 34138
L39054 34138
L39017 34119
L38998 34100
" />
<g >
</g>
</g>
<g style="fill:#000000; fill-opacity:0.0; 
stroke:#000000; stroke-width:59.0551; stroke-opacity:1; 
stroke-linecap:round; stroke-linejoin:round;">
</g>
<g style="fill:#C2C200; fill-opacity:0.0; 
stroke:#C2C200; stroke-width:59.0551; stroke-opacity:1; 
stroke-linecap:round; stroke-linejoin:round;">
</g>
<g style="fill:#C2C200; fill-opacity:0.0; 
stroke:#C2C200; stroke-width:39.3701; stroke-opacity:1; 
stroke-linecap:round; stroke-linejoin:round;">
<path d="M36425 40675
L36425 30425
" />
<path d="M57850 40675
L36425 40675
" />
<path d="M57850 30425
L57850 40675
" />
<path d="M36425 30425
L57850 30425
" />
<g >
</g>
<g >
</g>
<g >
</g>
<g >
</g>
<g >
</g>
<g >
</g>
<g >
</g>
<g >
</g>
<g >
</g>
<g >
</g>
<g >
</g>
<g >
</g>
<g >
</g>
<g >
</g>
<g >
</g>
<g >
</g>
<g >
</g>
</g> 
</svg>
